<svg width="480" height="220" viewBox="0 0 480 220" fill="none" xmlns="http://www.w3.org/2000/svg" aria-labelledby="title">
  <title id="title">Norell’s Café Logo</title>
  <rect width="480" height="220" fill="white" />
  <path d="M58 146c40-42 88-56 140-48 48 8 76 38 118 38 28 0 50-14 70-38" stroke="#1E1C18" stroke-width="3" stroke-linecap="round" />
  <text x="50" y="140" font-size="72" font-family="'Playfair Display', 'Times New Roman', serif" fill="#1E1C18">
    norell's
  </text>
  <text x="90" y="182" font-size="20" font-family="'Inter', 'Helvetica', sans-serif" letter-spacing="10" fill="#1E1C18">
    cafe
  </text>
  <line x1="50" y1="186" x2="82" y2="186" stroke="#1E1C18" stroke-width="2" />
  <line x1="196" y1="186" x2="228" y2="186" stroke="#1E1C18" stroke-width="2" />
  <g stroke="#1E1C18" stroke-width="3" stroke-linecap="round" stroke-linejoin="round">
    <circle cx="342" cy="62" r="16" fill="none" />
    <circle cx="296" cy="86" r="12" fill="none" />
    <path d="M332 78l-6 40" />
    <path d="M350 78l4 44" />
    <path d="M320 102l-16 46" />
    <path d="M308 140l6 32" />
    <path d="M352 124l22 34" />
    <path d="M332 118l18 54" />
    <path d="M288 98l-10 32" />
    <path d="M304 98l10 36" />
    <path d="M282 130l-6 38" />
    <path d="M312 134l6 36" />
  </g>
</svg>
